<?xml version="1.0" standalone="no"?>
<!DOCTYPE svg PUBLIC "-//W3C//DTD SVG 20010904//EN"
 "http://www.w3.org/TR/2001/REC-SVG-20010904/DTD/svg10.dtd">
<svg version="1.0" xmlns="http://www.w3.org/2000/svg"
 width="563.000000pt" height="563.000000pt" viewBox="0 0 563.000000 563.000000"
 preserveAspectRatio="xMidYMid meet">
<metadata>
Created by potrace 1.14, written by Peter Selinger 2001-2017
</metadata>
<g transform="translate(0.000000,563.000000) scale(0.100000,-0.100000)"
fill="#000000" stroke="none">
<path d="M4344 5360 c-127 -66 -242 -159 -440 -355 -108 -108 -309 -328 -421
-460 -38 -45 -784 -969 -851 -1054 -15 -19 -61 -75 -102 -126 -41 -51 -110
-137 -152 -190 l-78 -97 0 263 c-1 145 -3 494 -6 774 l-5 510 -25 32 c-59 78
-268 265 -464 417 -133 103 -156 108 -266 55 -184 -87 -516 -404 -895 -854
-232 -275 -352 -488 -307 -542 6 -8 34 -13 69 -13 51 0 68 5 129 42 39 24 130
87 203 140 72 54 133 98 136 98 2 0 29 -24 60 -52 31 -29 83 -77 116 -107 33
-29 97 -89 143 -133 l82 -80 -1 -1026 0 -1027 -24 -103 c-22 -98 -24 -119 -23
-462 l0 -359 122 -118 c155 -150 243 -228 314 -276 50 -34 61 -38 100 -33 165
20 398 224 719 631 126 161 233 330 233 369 0 8 -9 21 -20 29 -18 13 -238 214
-382 349 l-67 63 3 355 c4 412 14 487 76 610 60 117 155 179 283 186 120 5
211 -22 372 -113 36 -21 190 -175 242 -243 178 -234 327 -546 385 -809 20 -88
22 -135 27 -541 l6 -445 50 -8 c76 -13 316 -123 584 -269 53 -28 54 -29 101
-13 118 39 332 212 607 493 221 225 309 351 319 460 l6 58 -197 122 c-243 152
-345 205 -399 208 -39 2 -41 3 -43 35 0 19 -4 180 -7 359 -4 274 -8 341 -26
423 -135 655 -408 1100 -765 1250 -142 59 -240 70 -455 52 l-95 -8 55 64 c30
35 57 66 60 69 3 3 34 39 70 80 36 41 79 91 96 110 277 309 716 854 832 1033
131 201 98 271 -84 177z"/>
</g>
</svg>
